# xmcd
#
# Track frame offsets: 
#        150
#        15423
#        29284
#        40352
#        50013
#        63738
#        77557
#        89279
#        103297
#        119717
#        132397
#        144920
#        155415
#        166997
#        180599
#        190307
#        201892
#        217220
#
# Disc length: 3023 seconds
#
# Revision: 5
# Processed by: cddbd v1.5.2PL0 Copyright (c) Steve Scherf et al.
# Submitted via: ExactAudioCopy v0.99pb5
#
DISCID=090bcd12
DTITLE=B.B. King - Sings Spirituals
DYEAR=1959
DGENRE=Blues
TTITLE0=Precious Lord
TTITLE1=Save A Seat For Me
TTITLE2=Ole Time Religion
TTITLE3=Swing Low, Sweet Chariot
TTITLE4=Servant's Prayer
TTITLE5=Jesus Gave Me Water
TTITLE6=I Never Heard A Man
TTITLE7=Army Of The Lord
TTITLE8=I Am Willing To Run All The Way
TTITLE9=I'm Working On The Building
TTITLE10=A Lonely Lover's Plea
TTITLE11=I Am
TTITLE12=The Key To My Kingdom
TTITLE13=Story From My Heart And Soul (take 1)
TTITLE14=In The Middle Of An Island (take 7)
TTITLE15=Sixteen Tons
TTITLE16=Precious Lord (with overdubs)
TTITLE17=Swing Low, Sweet Chariot (with overdubs)
EXTD=
EXTT0=
EXTT1=
EXTT2=
EXTT3=
EXTT4=
EXTT5=
EXTT6=
EXTT7=
EXTT8=
EXTT9=
EXTT10=
EXTT11=
EXTT12=
EXTT13=
EXTT14=
EXTT15=
EXTT16=
EXTT17=
PLAYORDER=
